<svg xmlns="http://www.w3.org/2000/svg"
    xmlns:xlink="http://www.w3.org/1999/xlink" viewBox="0 0 512 512">
    <style type="text/css">
        :root {
            --content-color: rgba(31, 31, 31, 1);
        }
        .first-fill {
            color: var(--content-color);
            opacity: 0.1;
        }
        .second-fill {
            color: var(--content-color);
            opacity: 0.6;
        }
    </style>
    <g>
        <path class="first-fill" fill="currentColor"
            d="M256 8C119 8 8 119 8 256s111 248 248 248 248-111 248-248S393 8 256 8zm160 256a23.94 23.94 0 0 1-24 24H209.4l75.5 72.4a24 24 0 0 1 .4 34.3l-11 10.9a23.9 23.9 0 0 1-33.9 0L107.7 272.9a23.9 23.9 0 0 1 0-33.9l132.7-132.6a23.9 23.9 0 0 1 33.9 0l11 10.9a24 24 0 0 1-.4 34.3L209.4 224H392a23.94 23.94 0 0 1 24 24z">
        </path>
        <path class="second-fill" fill="currentColor"
            d="M285.3 394.7l-11 10.9a23.9 23.9 0 0 1-33.9 0L107.7 272.9a23.9 23.9 0 0 1 0-33.9l132.7-132.6a23.9 23.9 0 0 1 33.9 0l11 10.9a24 24 0 0 1-.4 34.3L209.4 224H392a23.94 23.94 0 0 1 24 24v16a23.94 23.94 0 0 1-24 24H209.4l75.5 72.4a24 24 0 0 1 .4 34.3z">
        </path>
    </g>
</svg>