<svg xmlns="http://www.w3.org/2000/svg"
    xmlns:xlink="http://www.w3.org/1999/xlink" viewBox="0 0 448 512">
    <style type="text/css">
        :root {
            --content-color: rgba(31, 31, 31, 1);
        }
        .first-fill {
            color: var(--content-color);
            opacity: 0.6;
        }
        .second-fill {
            color: var(--content-color);
            opacity: 0.9;
        }
    </style>
    <g>
        <path class="first-fill" fill="currentColor" 
            d="M207.6 69.3c2.9-17.4-8.9-33.9-26.3-36.8s-33.9 8.9-36.8 26.3L132.9 128h64.9l9.8-58.7zM187.1 192H122.2L80.4 442.7c-2.9 17.4 8.9 33.9 26.3 36.8s33.9-8.9 36.8-26.3L187.1 192zM367.6 69.3c2.9-17.4-8.9-33.9-26.3-36.8s-33.9 8.9-36.8 26.3L260.9 320h64.9L367.6 69.3zM315.1 384H250.2l-9.8 58.7c-2.9 17.4 8.9 33.9 26.3 36.8s33.9-8.9 36.8-26.3L315.1 384z">
        </path>
        <path class="second-fill" fill="currentColor" 
            d="M292.9 128H64c-17.7 0-32 14.3-32 32s14.3 32 32 32H282.2l10.7-64zm54.2 64H416c17.7 0 32-14.3 32-32s-14.3-32-32-32H357.8l-10.7 64zm-192 192H384c17.7 0 32-14.3 32-32s-14.3-32-32-32H165.8l-10.7 64zm-54.2-64H32c-17.7 0-32 14.3-32 32s14.3 32 32 32H90.2l10.7-64z">
        </path>
    </g>
</svg>