<svg xmlns="http://www.w3.org/2000/svg"
    xmlns:xlink="http://www.w3.org/1999/xlink" viewBox="0 0 448 512">
    <style type="text/css">
        :root {
            --content-color: rgba(255, 255, 255, 1);
        }
        .first-fill {
            color: var(--content-color);
            opacity: 0.5;
        }
        .second-fill {
            color: var(--content-color);
            opacity: 0.8;
        }
    </style>
    <g>
        <path class="first-fill" fill="currentColor" 
            d="M0 96L0 416c0 17.7 14.3 32 32 32s32-14.3 32-32L64 96c0-17.7-14.3-32-32-32S0 78.3 0 96z">
        </path>
        <path class="second-fill" fill="currentColor" 
            d="M438.6 233.4c12.5 12.5 12.5 32.8 0 45.3l-128 128c-12.5 12.5-32.8 12.5-45.3 0s-12.5-32.8 0-45.3L338.7 288 272 288l-112 0c-17.7 0-32-14.3-32-32s14.3-32 32-32l112 0 66.7 0-73.4-73.4c-12.5-12.5-12.5-32.8 0-45.3s32.8-12.5 45.3 0l128 128z">
        </path>
    </g>
</svg>