<svg xmlns="http://www.w3.org/2000/svg"
    xmlns:xlink="http://www.w3.org/1999/xlink" viewBox="0 0 100 100">
    <style type="text/css">
        .sky {
            color: rgba(176, 196, 222, 1)
        }
        .first-cloud {
            color: rgba(254, 254, 250, 1)
        }
        .second-cloud {
            color: rgba(211, 211, 211, 1)
        }
    </style>
    <g>
        <rect class="sky" fill="currentColor" 
            width="102" height="102" 
            rx="25" ry="25" 
            y="-1" x="-1" />
    </g>
    <g>
        <path class="first-cloud" fill="currentColor" 
            d="m16.990782,44.362041a15.932,15.932 0 0 1 24.634,-12.924a18.117,18.117 0 0 1 16.418,-10.438a18.107,18.107 0 0 1 14.349,7.014a17.669,17.669 0 0 1 3.725,10.862c0,0.384 -0.034,0.76 -0.058,1.138c0.359,-0.026 0.717,-0.054 1.082,-0.054a14.836,14.836 0 1 1 0,29.671l-57.197,0a12.79,12.79 0 0 1 -2.953,-25.269z" />
        <path class="second-cloud" fill="currentColor" 
            d="m60.799921,66.316016a7.717,7.717 0 0 1 11.933,-6.26a8.774,8.774 0 0 1 7.953,-5.056a8.772,8.772 0 0 1 6.95,3.4a8.561,8.561 0 0 1 1.8,5.262c0,0.186 -0.016,0.368 -0.028,0.551c0.174,-0.012 0.347,-0.026 0.524,-0.026a7.186,7.186 0 1 1 0,14.372l-27.7,0a6.2,6.2 0 0 1 -1.431,-12.24l-0.001,-0.003z" />
    </g>
</svg>